# This file uses centimeters as units for non-parametric coordinates.

mtllib steen6.mtl
g default
v -2.501002 0.000000 0.454262
v -1.774612 0.000000 0.330146
v -2.323810 0.619659 0.178507
v -2.323805 0.619658 0.178505
v -2.531701 0.619658 -0.381148
v -1.976602 0.608361 -0.584891
v -2.489718 0.000000 -0.667699
v -2.040599 0.000000 -0.702818
v -2.531702 0.619658 -0.381148
v -1.976602 0.608360 -0.584891
v -1.729902 0.000000 -0.462081
v -2.678058 0.000000 -0.214915
v -2.005926 0.389132 -0.827235
v -2.601228 0.380179 -0.749426
v -2.804058 0.380179 -0.257180
v -2.581252 0.380179 0.556807
v -1.797659 0.380179 0.426101
v -1.720531 0.383710 -0.504179
vt 0.375000 0.000000
vt 0.625000 0.000000
vt 0.375000 0.250000
vt 0.625000 0.250000
vt 0.375000 0.500000
vt 0.625000 0.500000
vt 0.375000 0.750000
vt 0.625000 0.750000
vt 0.375000 1.000000
vt 0.625000 1.000000
vt 0.875000 0.000000
vt 0.875000 0.250000
vt 0.125000 0.000000
vt 0.125000 0.250000
vt 0.250000 0.250000
vt 0.375000 0.375000
vt 0.625000 0.375000
vt 0.750000 0.250000
vt 0.625000 0.875000
vt 0.750000 0.000000
vt 0.250000 0.000000
vt 0.375000 0.875000
vt 0.625000 0.711365
vt 0.875000 0.038635
vt 0.125000 0.038635
vt 0.375000 0.711365
vt 0.250000 0.038635
vt 0.375000 0.038635
vt 0.625000 0.038635
vt 0.750000 0.038635
vn 0.096485 0.810008 0.578427
vn 0.096485 0.810008 0.578427
vn 0.096485 0.810008 0.578427
vn 0.096485 0.810008 0.578427
vn 0.127514 -0.940471 0.315048
vn 0.127514 -0.940471 0.315048
vn 0.127514 -0.940471 0.315048
vn 0.127514 -0.940471 0.315048
vn -0.140328 0.802398 -0.580056
vn -0.140328 0.802398 -0.580057
vn -0.140328 0.802398 -0.580057
vn -0.140328 0.802398 -0.580057
vn 0.000000 -1.000000 0.000000
vn 0.000000 -1.000000 0.000000
vn 0.000000 -1.000000 0.000000
vn 0.000000 -1.000000 0.000000
vn 0.640082 0.529641 -0.556575
vn 0.640082 0.529641 -0.556575
vn 0.640082 0.529641 -0.556575
vn 0.640082 0.529641 -0.556575
vn -0.702984 0.649545 -0.289665
vn -0.702984 0.649545 -0.289665
vn -0.702984 0.649545 -0.289665
vn -0.702984 0.649545 -0.289665
vn 0.017908 0.999818 -0.006652
vn 0.017908 0.999818 -0.006652
vn 0.017908 0.999818 -0.006652
vn 0.017908 0.999818 -0.006652
vn 0.471126 0.874665 0.114025
vn 0.471126 0.874665 0.114025
vn 0.471126 0.874665 0.114025
vn 0.471126 0.874665 0.114025
vn -0.000000 -1.000000 0.000000
vn -0.000000 -1.000000 0.000000
vn -0.000000 -1.000000 0.000000
vn -0.000000 -1.000000 0.000000
vn -0.562778 0.807555 0.176455
vn -0.562778 0.807555 0.176455
vn -0.562778 0.807555 0.176455
vn -0.562778 0.807555 0.176455
vn -0.101336 -0.266928 -0.958374
vn -0.101336 -0.266928 -0.958374
vn -0.101336 -0.266928 -0.958374
vn -0.101336 -0.266928 -0.958374
vn -0.871833 -0.331178 -0.360872
vn -0.871833 -0.331178 -0.360872
vn -0.871833 -0.331178 -0.360872
vn -0.871833 -0.331178 -0.360872
vn -0.929152 -0.271894 0.250500
vn -0.929152 -0.271894 0.250500
vn -0.929152 -0.271894 0.250500
vn -0.929152 -0.271894 0.250500
vn 0.161999 -0.228598 0.959948
vn 0.161999 -0.228598 0.959948
vn 0.161999 -0.228598 0.959948
vn 0.161999 -0.228598 0.959948
vn 0.997423 0.012882 0.070577
vn 0.997423 0.012882 0.070577
vn 0.997423 0.012882 0.070577
vn 0.997423 0.012882 0.070577
vn 0.673417 -0.192181 -0.713846
vn 0.673417 -0.192181 -0.713846
vn 0.673417 -0.192181 -0.713846
vn 0.673417 -0.192181 -0.713846
s off
g pCube6
usemtl initialShadingGroup
f 16/28/1 17/29/2 4/4/3 3/3/4
f 9/16/5 10/17/6 6/6/7 5/5/8
f 5/5/9 6/6/10 13/23/11 14/26/12
f 7/7/13 8/8/14 11/19/15 12/22/16
f 10/18/17 18/30/18 13/24/19 6/12/20
f 14/25/21 15/27/22 9/15/23 5/14/24
f 3/3/25 4/4/26 10/17/27 9/16/28
f 17/29/29 18/30/30 10/18/31 4/4/32
f 12/22/33 11/19/34 2/10/35 1/9/36
f 9/15/37 15/27/38 16/28/39 3/3/40
f 14/26/41 13/23/42 8/8/43 7/7/44
f 7/13/45 12/21/46 15/27/47 14/25/48
f 16/28/49 15/27/50 12/21/51 1/1/52
f 1/1/53 2/2/54 17/29/55 16/28/56
f 2/2/57 11/20/58 18/30/59 17/29/60
f 13/24/61 18/30/62 11/20/63 8/11/64
